<svg width="13" height="15" fill="none" xmlns="http://www.w3.org/2000/svg"><path d="M2.75 11.25c0 .344.281.625.625.625H4v2.188c0 .518.419.937.938.937a.936.936 0 0 0 .937-.938v-2.187h1.25v2.188c0 .518.419.937.938.937A.936.936 0 0 0 9 14.062v-2.187h.625a.627.627 0 0 0 .625-.625V5h-7.5v6.25ZM1.187 5a.936.936 0 0 0-.937.938v4.375c0 .518.419.937.938.937a.936.936 0 0 0 .937-.938V5.939A.936.936 0 0 0 1.187 5Zm10.626 0a.936.936 0 0 0-.938.938v4.375c0 .518.419.937.938.937a.936.936 0 0 0 .937-.938V5.939A.936.936 0 0 0 11.812 5ZM8.706 1.35 9.52.537a.31.31 0 0 0 0-.443.31.31 0 0 0-.444 0l-.925.925A3.65 3.65 0 0 0 6.5.625c-.6 0-1.162.144-1.662.394L3.906.094a.31.31 0 0 0-.444 0 .31.31 0 0 0 0 .444l.82.818A3.74 3.74 0 0 0 2.75 4.375h7.5A3.728 3.728 0 0 0 8.706 1.35ZM5.25 3.125h-.625V2.5h.625v.625Zm3.125 0H7.75V2.5h.625v.625Z" fill="#000"/></svg>