<svg width="50" height="18" fill="none" xmlns="http://www.w3.org/2000/svg"><path d="M.84 8.6c0-1.648.368-3.12 1.104-4.416.752-1.312 1.768-2.328 3.048-3.048C6.288.4 7.736.032 9.336.032c1.872 0 3.512.48 4.92 1.44s2.392 2.288 2.952 3.984h-3.864c-.384-.8-.928-1.4-1.632-1.8-.688-.4-1.488-.6-2.4-.6-.976 0-1.848.232-2.616.696-.752.448-1.344 1.088-1.776 1.92-.416.832-.624 1.808-.624 2.928 0 1.104.208 2.08.624 2.928.432.832 1.024 1.48 1.776 1.944.768.448 1.64.672 2.616.672.912 0 1.712-.2 2.4-.6.704-.416 1.248-1.024 1.632-1.824h3.864c-.56 1.712-1.544 3.048-2.952 4.008-1.392.944-3.032 1.416-4.92 1.416-1.6 0-3.048-.36-4.344-1.08a8.195 8.195 0 0 1-3.048-3.048C1.208 11.72.84 10.248.84 8.6ZM30.422.248V2.96h-6.984v4.296h5.352V9.92h-5.352V17h-3.36V.248h10.344Zm10.158 16.92c-1.568 0-3.008-.368-4.32-1.104a8.27 8.27 0 0 1-3.12-3.048c-.768-1.312-1.152-2.792-1.152-4.44 0-1.632.384-3.096 1.152-4.392a8.216 8.216 0 0 1 3.12-3.072C37.572.376 39.012.008 40.58.008c1.584 0 3.024.368 4.32 1.104a8.044 8.044 0 0 1 3.096 3.072c.768 1.296 1.152 2.76 1.152 4.392 0 1.648-.384 3.128-1.152 4.44a8.093 8.093 0 0 1-3.096 3.048c-1.312.736-2.752 1.104-4.32 1.104Zm0-3c1.008 0 1.896-.224 2.664-.672.768-.464 1.368-1.12 1.8-1.968.432-.848.648-1.832.648-2.952 0-1.12-.216-2.096-.648-2.928-.432-.848-1.032-1.496-1.8-1.944-.768-.448-1.656-.672-2.664-.672-1.008 0-1.904.224-2.688.672-.768.448-1.368 1.096-1.8 1.944-.432.832-.648 1.808-.648 2.928 0 1.12.216 2.104.648 2.952.432.848 1.032 1.504 1.8 1.968.784.448 1.68.672 2.688.672Z" fill="#9F9F9F"/></svg>