<svg width="146" height="20" fill="none" xmlns="http://www.w3.org/2000/svg"><path d="M4.016 4.96v4.2h5.64v2.664h-5.64v4.44h6.36V19H.656V2.224h9.72V4.96h-6.36Zm12.773-3.72V19h-3.36V1.24h3.36Zm5.024 2.88c-.592 0-1.088-.184-1.488-.552a1.925 1.925 0 0 1-.576-1.416c0-.56.192-1.024.576-1.392.4-.384.896-.576 1.488-.576s1.08.192 1.464.576c.4.368.6.832.6 1.392 0 .56-.2 1.032-.6 1.416-.384.368-.872.552-1.464.552Zm1.656 1.584V19h-3.36V5.704h3.36Zm8.408 13.512c-1.088 0-2.064-.192-2.928-.576-.864-.4-1.552-.936-2.064-1.608a4.092 4.092 0 0 1-.816-2.232h3.384c.064.512.312.936.744 1.272.448.336 1 .504 1.656.504.64 0 1.136-.128 1.488-.384.368-.256.552-.584.552-.984 0-.432-.224-.752-.672-.96-.432-.224-1.128-.464-2.088-.72-.992-.24-1.808-.488-2.448-.744a4.351 4.351 0 0 1-1.632-1.176c-.448-.528-.672-1.24-.672-2.136 0-.736.208-1.408.624-2.016.432-.608 1.04-1.088 1.824-1.44.8-.352 1.736-.528 2.808-.528 1.584 0 2.848.4 3.792 1.2.944.784 1.464 1.848 1.56 3.192h-3.216c-.048-.528-.272-.944-.672-1.248-.384-.32-.904-.48-1.56-.48-.608 0-1.08.112-1.416.336-.32.224-.48.536-.48.936 0 .448.224.792.672 1.032.448.224 1.144.456 2.088.696.96.24 1.752.488 2.376.744.624.256 1.16.656 1.608 1.2.464.528.704 1.232.72 2.112 0 .768-.216 1.456-.648 2.064-.416.608-1.024 1.088-1.824 1.44-.784.336-1.704.504-2.76.504Zm7.126-6.912c0-1.344.264-2.536.792-3.576.544-1.04 1.272-1.84 2.184-2.4.928-.56 1.96-.84 3.096-.84.992 0 1.856.2 2.592.6.752.4 1.352.904 1.8 1.512V5.704h3.384V19h-3.384v-1.944c-.432.624-1.032 1.144-1.8 1.56-.752.4-1.624.6-2.616.6a5.71 5.71 0 0 1-3.072-.864c-.912-.576-1.64-1.384-2.184-2.424-.528-1.056-.792-2.264-.792-3.624Zm10.464.048c0-.816-.16-1.512-.48-2.088-.32-.592-.752-1.04-1.296-1.344a3.397 3.397 0 0 0-1.752-.48c-.624 0-1.2.152-1.728.456-.528.304-.96.752-1.296 1.344-.32.576-.48 1.264-.48 2.064s.16 1.504.48 2.112c.336.592.768 1.048 1.296 1.368.544.32 1.12.48 1.728.48.624 0 1.208-.152 1.752-.456.544-.32.976-.768 1.296-1.344.32-.592.48-1.296.48-2.112Zm10.026-4.704c.432-.64 1.024-1.16 1.776-1.56.768-.4 1.64-.6 2.616-.6 1.136 0 2.16.28 3.072.84.928.56 1.656 1.36 2.184 2.4.544 1.024.816 2.216.816 3.576 0 1.36-.272 2.568-.816 3.624-.528 1.04-1.256 1.848-2.184 2.424-.912.576-1.936.864-3.072.864-.992 0-1.864-.192-2.616-.576-.736-.4-1.328-.912-1.776-1.536V19h-3.36V1.24h3.36v6.408Zm7.032 4.656c0-.8-.168-1.488-.504-2.064-.32-.592-.752-1.04-1.296-1.344a3.403 3.403 0 0 0-1.728-.456c-.608 0-1.184.16-1.728.48-.528.304-.96.752-1.296 1.344-.32.592-.48 1.288-.48 2.088s.16 1.496.48 2.088c.336.592.768 1.048 1.296 1.368a3.49 3.49 0 0 0 1.728.456c.624 0 1.2-.16 1.728-.48a3.45 3.45 0 0 0 1.296-1.368c.336-.592.504-1.296.504-2.112Zm18.233-.24c0 .48-.032.912-.096 1.296h-9.72c.08.96.416 1.712 1.008 2.256.592.544 1.32.816 2.184.816 1.248 0 2.136-.536 2.664-1.608h3.624c-.384 1.28-1.12 2.336-2.208 3.168-1.088.816-2.424 1.224-4.008 1.224-1.28 0-2.432-.28-3.456-.84a6.182 6.182 0 0 1-2.376-2.424c-.56-1.04-.84-2.24-.84-3.6 0-1.376.28-2.584.84-3.624a5.861 5.861 0 0 1 2.352-2.4c1.008-.56 2.168-.84 3.48-.84 1.264 0 2.392.272 3.384.816a5.63 5.63 0 0 1 2.328 2.328c.56.992.84 2.136.84 3.432Zm-3.48-.96c-.016-.864-.328-1.552-.936-2.064-.608-.528-1.352-.792-2.232-.792-.832 0-1.536.256-2.112.768-.56.496-.904 1.192-1.032 2.088h6.312Zm9.845-2.64v6.432c0 .448.104.776.312.984.224.192.592.288 1.104.288h1.56V19h-2.112c-2.832 0-4.248-1.376-4.248-4.128V8.464h-1.584v-2.76h1.584V2.416h3.384v3.288h2.976v2.76h-2.976Zm12.88-2.952c1.008 0 1.904.224 2.688.672.784.432 1.392 1.08 1.824 1.944.448.848.672 1.872.672 3.072V19h-3.36v-7.344c0-1.056-.264-1.864-.792-2.424-.528-.576-1.248-.864-2.16-.864-.928 0-1.664.288-2.208.864-.528.56-.792 1.368-.792 2.424V19h-3.36V1.24h3.36v6.12c.432-.576 1.008-1.024 1.728-1.344.72-.336 1.52-.504 2.4-.504Zm23.602 4.896c.944.176 1.72.648 2.328 1.416.608.768.912 1.648.912 2.64 0 .896-.224 1.688-.672 2.376-.432.672-1.064 1.2-1.896 1.584-.832.384-1.816.576-2.952.576h-7.224V2.248h6.912c1.136 0 2.112.184 2.928.552.832.368 1.456.88 1.872 1.536.432.656.648 1.4.648 2.232 0 .976-.264 1.792-.792 2.448-.512.656-1.2 1.12-2.064 1.392Zm-6.144-1.248h3.072c.8 0 1.416-.176 1.848-.528.432-.368.648-.888.648-1.56s-.216-1.192-.648-1.56c-.432-.368-1.048-.552-1.848-.552h-3.072v4.2Zm3.384 7.104c.816 0 1.448-.192 1.896-.576.464-.384.696-.928.696-1.632 0-.72-.24-1.28-.72-1.68-.48-.416-1.128-.624-1.944-.624h-3.312v4.512h3.384Zm21.038-4.2c0 .48-.032.912-.096 1.296h-9.72c.08.96.416 1.712 1.008 2.256.592.544 1.32.816 2.184.816 1.248 0 2.136-.536 2.664-1.608h3.624c-.384 1.28-1.12 2.336-2.208 3.168-1.088.816-2.424 1.224-4.008 1.224-1.28 0-2.432-.28-3.456-.84a6.182 6.182 0 0 1-2.376-2.424c-.56-1.04-.84-2.24-.84-3.6 0-1.376.28-2.584.84-3.624a5.861 5.861 0 0 1 2.352-2.4c1.008-.56 2.168-.84 3.48-.84 1.264 0 2.392.272 3.384.816a5.63 5.63 0 0 1 2.328 2.328c.56.992.84 2.136.84 3.432Zm-3.48-.96c-.016-.864-.328-1.552-.936-2.064-.608-.528-1.352-.792-2.232-.792-.832 0-1.536.256-2.112.768-.56.496-.904 1.192-1.032 2.088h6.312Z" fill="#414141"/></svg>