<svg width="178" height="26" fill="none" xmlns="http://www.w3.org/2000/svg"><path d="M11.928 15.808H5.256L4.152 19H.624L6.648 2.224h3.912L16.584 19h-3.552l-1.104-3.192Zm-.912-2.688L8.592 6.112 6.168 13.12h4.848Zm15.188-7.608c1.584 0 2.864.504 3.84 1.512.976.992 1.464 2.384 1.464 4.176V19h-3.36v-7.344c0-1.056-.264-1.864-.792-2.424-.528-.576-1.248-.864-2.16-.864-.928 0-1.664.288-2.208.864-.528.56-.792 1.368-.792 2.424V19h-3.36V5.704h3.36V7.36A4.555 4.555 0 0 1 23.9 6.016a5.28 5.28 0 0 1 2.304-.504Zm7.635 6.792c0-1.344.264-2.536.792-3.576.544-1.04 1.28-1.84 2.208-2.4.928-.56 1.96-.84 3.096-.84a5.55 5.55 0 0 1 2.472.576c.784.368 1.408.864 1.872 1.488V1.24h3.408V19h-3.408v-1.968c-.416.656-1 1.184-1.752 1.584-.752.4-1.624.6-2.616.6a5.71 5.71 0 0 1-3.072-.864c-.928-.576-1.664-1.384-2.208-2.424-.528-1.056-.792-2.264-.792-3.624Zm10.464.048c0-.816-.16-1.512-.48-2.088-.32-.592-.752-1.04-1.296-1.344a3.397 3.397 0 0 0-1.752-.48c-.624 0-1.2.152-1.728.456-.528.304-.96.752-1.296 1.344-.32.576-.48 1.264-.48 2.064s.16 1.504.48 2.112c.336.592.768 1.048 1.296 1.368.544.32 1.12.48 1.728.48.624 0 1.208-.152 1.752-.456.544-.32.976-.768 1.296-1.344.32-.592.48-1.296.48-2.112Zm10.026-4.584a4.755 4.755 0 0 1 1.68-1.656c.703-.4 1.504-.6 2.4-.6V9.04h-.889c-1.056 0-1.856.248-2.4.744-.527.496-.791 1.36-.791 2.592V19h-3.36V5.704h3.36v2.064Zm18.703 4.296c0 .48-.032.912-.096 1.296h-9.72c.08.96.416 1.712 1.008 2.256.592.544 1.32.816 2.184.816 1.248 0 2.136-.536 2.664-1.608h3.624c-.384 1.28-1.12 2.336-2.208 3.168-1.088.816-2.424 1.224-4.008 1.224-1.28 0-2.432-.28-3.456-.84a6.182 6.182 0 0 1-2.376-2.424c-.56-1.04-.84-2.24-.84-3.6 0-1.376.28-2.584.84-3.624A5.861 5.861 0 0 1 63 6.328c1.008-.56 2.168-.84 3.48-.84 1.264 0 2.392.272 3.384.816a5.63 5.63 0 0 1 2.328 2.328c.56.992.84 2.136.84 3.432Zm-3.48-.96c-.016-.864-.328-1.552-.936-2.064-.608-.528-1.352-.792-2.232-.792-.832 0-1.536.256-2.112.768-.56.496-.904 1.192-1.032 2.088h6.312Zm18.292.96c0 .48-.032.912-.096 1.296h-9.72c.08.96.416 1.712 1.008 2.256.592.544 1.32.816 2.184.816 1.248 0 2.136-.536 2.664-1.608h3.624c-.384 1.28-1.12 2.336-2.208 3.168-1.088.816-2.424 1.224-4.008 1.224-1.28 0-2.432-.28-3.456-.84a6.182 6.182 0 0 1-2.376-2.424c-.56-1.04-.84-2.24-.84-3.6 0-1.376.28-2.584.84-3.624a5.861 5.861 0 0 1 2.352-2.4c1.008-.56 2.168-.84 3.48-.84 1.264 0 2.392.272 3.384.816a5.63 5.63 0 0 1 2.328 2.328c.56.992.84 2.136.84 3.432Zm-3.48-.96c-.016-.864-.328-1.552-.936-2.064-.608-.528-1.352-.792-2.232-.792-.832 0-1.536.256-2.112.768-.56.496-.904 1.192-1.032 2.088h6.312Zm34.043-8.856L113.727 19h-3.96l-3.144-11.928L103.335 19l-3.936.024-4.512-16.776h3.6l2.952 13.008 3.408-13.008h3.744l3.216 12.936 2.976-12.936h3.624Zm3.898 1.872c-.592 0-1.088-.184-1.488-.552a1.925 1.925 0 0 1-.576-1.416c0-.56.192-1.024.576-1.392.4-.384.896-.576 1.488-.576s1.08.192 1.464.576c.4.368.6.832.6 1.392 0 .56-.2 1.032-.6 1.416-.384.368-.872.552-1.464.552Zm1.656 1.584V19h-3.36V5.704h3.36Zm5.024-1.584c-.608 0-1.112-.184-1.512-.552a1.925 1.925 0 0 1-.576-1.416c0-.56.192-1.024.576-1.392.4-.384.904-.576 1.512-.576.592 0 1.08.192 1.464.576.384.368.576.832.576 1.392 0 .56-.192 1.032-.576 1.416-.384.368-.872.552-1.464.552Zm1.656 17.064c0 1.472-.368 2.528-1.104 3.168-.72.656-1.76.984-3.12.984h-1.488V22.48h.96c.512 0 .872-.104 1.08-.312.208-.192.312-.512.312-.96V5.704h3.36v15.48Zm2.456-8.88c0-1.344.264-2.536.792-3.576.544-1.04 1.272-1.84 2.184-2.4.928-.56 1.96-.84 3.096-.84.992 0 1.856.2 2.592.6.752.4 1.352.904 1.8 1.512V5.704h3.384V19h-3.384v-1.944c-.432.624-1.032 1.144-1.8 1.56-.752.4-1.624.6-2.616.6a5.71 5.71 0 0 1-3.072-.864c-.912-.576-1.64-1.384-2.184-2.424-.528-1.056-.792-2.264-.792-3.624Zm10.464.048c0-.816-.16-1.512-.48-2.088-.32-.592-.752-1.04-1.296-1.344a3.397 3.397 0 0 0-1.752-.48c-.624 0-1.2.152-1.728.456-.528.304-.96.752-1.296 1.344-.32.576-.48 1.264-.48 2.064s.16 1.504.48 2.112c.336.592.768 1.048 1.296 1.368.544.32 1.12.48 1.728.48.624 0 1.208-.152 1.752-.456.544-.32.976-.768 1.296-1.344.32-.592.48-1.296.48-2.112Zm19.385-6.648-8.232 19.584h-3.576l2.88-6.624-5.328-12.96h3.768l3.432 9.288 3.48-9.288h3.576Zm.948 6.6c0-1.344.264-2.536.792-3.576.544-1.04 1.272-1.84 2.184-2.4.928-.56 1.96-.84 3.096-.84.992 0 1.856.2 2.592.6.752.4 1.352.904 1.8 1.512V5.704h3.384V19h-3.384v-1.944c-.432.624-1.032 1.144-1.8 1.56-.752.4-1.624.6-2.616.6a5.71 5.71 0 0 1-3.072-.864c-.912-.576-1.64-1.384-2.184-2.424-.528-1.056-.792-2.264-.792-3.624Zm10.464.048c0-.816-.16-1.512-.48-2.088-.32-.592-.752-1.04-1.296-1.344a3.397 3.397 0 0 0-1.752-.48c-.624 0-1.2.152-1.728.456-.528.304-.96.752-1.296 1.344-.32.576-.48 1.264-.48 2.064s.16 1.504.48 2.112c.336.592.768 1.048 1.296 1.368.544.32 1.12.48 1.728.48.624 0 1.208-.152 1.752-.456.544-.32.976-.768 1.296-1.344.32-.592.48-1.296.48-2.112Z" fill="#414141"/></svg>