<svg width="208" height="26" fill="none" xmlns="http://www.w3.org/2000/svg"><path d="M6.44 19.168c-1.168 0-2.224-.2-3.168-.6-.928-.4-1.664-.976-2.208-1.728-.544-.752-.824-1.64-.84-2.664h3.6c.048.688.288 1.232.72 1.632.448.4 1.056.6 1.824.6.784 0 1.4-.184 1.848-.552.448-.384.672-.88.672-1.488 0-.496-.152-.904-.456-1.224A3.053 3.053 0 0 0 7.28 12.4c-.448-.192-1.072-.4-1.872-.624-1.088-.32-1.976-.632-2.664-.936A4.937 4.937 0 0 1 .992 9.424c-.48-.64-.72-1.488-.72-2.544 0-.992.248-1.856.744-2.592s1.192-1.296 2.088-1.68c.896-.4 1.92-.6 3.072-.6 1.728 0 3.128.424 4.2 1.272 1.088.832 1.688 2 1.8 3.504H8.48c-.032-.576-.28-1.048-.744-1.416-.448-.384-1.048-.576-1.8-.576-.656 0-1.184.168-1.584.504-.384.336-.576.824-.576 1.464 0 .448.144.824.432 1.128.304.288.672.528 1.104.72.448.176 1.072.384 1.872.624 1.088.32 1.976.64 2.664.96.688.32 1.28.8 1.776 1.44.496.64.744 1.48.744 2.52a4.74 4.74 0 0 1-.696 2.496c-.464.768-1.144 1.384-2.04 1.848-.896.448-1.96.672-3.192.672Zm7.977-6.864c0-1.344.264-2.536.792-3.576.544-1.04 1.272-1.84 2.184-2.4.928-.56 1.96-.84 3.096-.84.992 0 1.856.2 2.592.6.752.4 1.352.904 1.8 1.512V5.704h3.384V19h-3.384v-1.944c-.432.624-1.032 1.144-1.8 1.56-.752.4-1.624.6-2.616.6a5.71 5.71 0 0 1-3.072-.864c-.912-.576-1.64-1.384-2.184-2.424-.528-1.056-.792-2.264-.792-3.624Zm10.464.048c0-.816-.16-1.512-.48-2.088-.32-.592-.752-1.04-1.296-1.344a3.397 3.397 0 0 0-1.752-.48c-.624 0-1.2.152-1.728.456-.528.304-.96.752-1.296 1.344-.32.576-.48 1.264-.48 2.064s.16 1.504.48 2.112c.336.592.768 1.048 1.296 1.368.544.32 1.12.48 1.728.48.624 0 1.208-.152 1.752-.456.544-.32.976-.768 1.296-1.344.32-.592.48-1.296.48-2.112Zm14.034-6.84c1.584 0 2.864.504 3.84 1.512.976.992 1.464 2.384 1.464 4.176V19h-3.36v-7.344c0-1.056-.264-1.864-.792-2.424-.528-.576-1.248-.864-2.16-.864-.928 0-1.664.288-2.208.864-.528.56-.792 1.368-.792 2.424V19h-3.36V5.704h3.36V7.36a4.555 4.555 0 0 1 1.704-1.344 5.28 5.28 0 0 1 2.304-.504ZM49.118 4.12c-.608 0-1.112-.184-1.512-.552a1.925 1.925 0 0 1-.576-1.416c0-.56.192-1.024.576-1.392.4-.384.904-.576 1.512-.576.592 0 1.08.192 1.464.576.384.368.576.832.576 1.392 0 .56-.192 1.032-.576 1.416-.384.368-.872.552-1.464.552Zm1.656 17.064c0 1.472-.368 2.528-1.104 3.168-.72.656-1.76.984-3.12.984h-1.488V22.48h.96c.512 0 .872-.104 1.08-.312.208-.192.312-.512.312-.96V5.704h3.36v15.48Zm2.456-8.88c0-1.344.264-2.536.792-3.576.544-1.04 1.272-1.84 2.184-2.4.927-.56 1.96-.84 3.095-.84.992 0 1.856.2 2.593.6.752.4 1.352.904 1.8 1.512V5.704h3.383V19h-3.383v-1.944c-.433.624-1.033 1.144-1.8 1.56-.752.4-1.624.6-2.616.6a5.71 5.71 0 0 1-3.072-.864c-.913-.576-1.64-1.384-2.184-2.424-.529-1.056-.792-2.264-.792-3.624Zm10.464.048c0-.816-.16-1.512-.48-2.088-.32-.592-.752-1.04-1.297-1.344a3.397 3.397 0 0 0-1.752-.48c-.623 0-1.2.152-1.727.456-.529.304-.96.752-1.297 1.344-.32.576-.48 1.264-.48 2.064s.16 1.504.48 2.112c.337.592.769 1.048 1.297 1.368.543.32 1.12.48 1.727.48.624 0 1.209-.152 1.752-.456.544-.32.977-.768 1.297-1.344.32-.592.48-1.296.48-2.112Zm19.385-6.648-8.232 19.584h-3.576l2.88-6.624-5.328-12.96h3.768l3.432 9.288 3.48-9.288h3.576Zm.947 6.6c0-1.344.264-2.536.792-3.576.544-1.04 1.272-1.84 2.184-2.4.928-.56 1.96-.84 3.096-.84.992 0 1.856.2 2.592.6.752.4 1.352.904 1.8 1.512V5.704h3.384V19H94.49v-1.944c-.432.624-1.032 1.144-1.8 1.56-.752.4-1.624.6-2.616.6a5.71 5.71 0 0 1-3.072-.864c-.912-.576-1.64-1.384-2.184-2.424-.528-1.056-.792-2.264-.792-3.624Zm10.464.048c0-.816-.16-1.512-.48-2.088-.32-.592-.752-1.04-1.296-1.344a3.397 3.397 0 0 0-1.752-.48c-.624 0-1.2.152-1.728.456-.528.304-.96.752-1.296 1.344-.32.576-.48 1.264-.48 2.064s.16 1.504.48 2.112c.336.592.768 1.048 1.296 1.368.544.32 1.12.48 1.728.48.624 0 1.208-.152 1.752-.456.544-.32.976-.768 1.296-1.344.32-.592.48-1.296.48-2.112Zm34.777-10.104L124.587 19h-3.96l-3.144-11.928L114.195 19l-3.936.024-4.512-16.776h3.6l2.952 13.008 3.408-13.008h3.744l3.216 12.936 2.976-12.936h3.624Zm1.33 10.056c0-1.344.264-2.536.792-3.576.544-1.04 1.272-1.84 2.184-2.4.928-.56 1.96-.84 3.096-.84.992 0 1.856.2 2.592.6.752.4 1.352.904 1.8 1.512V5.704h3.384V19h-3.384v-1.944c-.432.624-1.032 1.144-1.8 1.56-.752.4-1.624.6-2.616.6a5.71 5.71 0 0 1-3.072-.864c-.912-.576-1.64-1.384-2.184-2.424-.528-1.056-.792-2.264-.792-3.624Zm10.464.048c0-.816-.16-1.512-.48-2.088-.32-.592-.752-1.04-1.296-1.344a3.397 3.397 0 0 0-1.752-.48c-.624 0-1.2.152-1.728.456-.528.304-.96.752-1.296 1.344-.32.576-.48 1.264-.48 2.064s.16 1.504.48 2.112c.336.592.768 1.048 1.296 1.368.544.32 1.12.48 1.728.48.624 0 1.208-.152 1.752-.456.544-.32.976-.768 1.296-1.344.32-.592.48-1.296.48-2.112Zm14.153-6.84c1.008 0 1.904.224 2.688.672.784.432 1.392 1.08 1.824 1.944.448.848.672 1.872.672 3.072V19h-3.36v-7.344c0-1.056-.264-1.864-.792-2.424-.528-.576-1.248-.864-2.16-.864-.928 0-1.664.288-2.208.864-.528.56-.792 1.368-.792 2.424V19h-3.36V1.24h3.36v6.12c.432-.576 1.008-1.024 1.728-1.344.72-.336 1.52-.504 2.4-.504Zm14.284 13.704c-1.28 0-2.432-.28-3.456-.84a6.301 6.301 0 0 1-2.424-2.424c-.576-1.04-.864-2.24-.864-3.6 0-1.36.296-2.56.888-3.6a6.253 6.253 0 0 1 2.472-2.4c1.04-.576 2.2-.864 3.48-.864 1.28 0 2.44.288 3.48.864a6.091 6.091 0 0 1 2.448 2.4c.608 1.04.912 2.24.912 3.6 0 1.36-.312 2.56-.937 3.6a6.368 6.368 0 0 1-2.495 2.424c-1.04.56-2.208.84-3.504.84Zm0-2.928c.608 0 1.176-.144 1.704-.432.544-.304.976-.752 1.296-1.344.32-.592.48-1.312.48-2.16 0-1.264-.336-2.232-1.008-2.904-.656-.688-1.464-1.032-2.424-1.032s-1.768.344-2.424 1.032c-.64.672-.96 1.64-.96 2.904s.312 2.24.936 2.928c.64.672 1.44 1.008 2.4 1.008Zm16.768-10.776c1.584 0 2.864.504 3.84 1.512.976.992 1.464 2.384 1.464 4.176V19h-3.36v-7.344c0-1.056-.264-1.864-.792-2.424-.528-.576-1.248-.864-2.16-.864-.928 0-1.664.288-2.208.864-.528.56-.792 1.368-.792 2.424V19h-3.36V5.704h3.36V7.36a4.555 4.555 0 0 1 1.704-1.344 5.28 5.28 0 0 1 2.304-.504Zm14.403 13.704c-1.28 0-2.432-.28-3.456-.84a6.301 6.301 0 0 1-2.424-2.424c-.576-1.04-.864-2.24-.864-3.6 0-1.36.296-2.56.888-3.6a6.253 6.253 0 0 1 2.472-2.4c1.04-.576 2.2-.864 3.48-.864 1.28 0 2.44.288 3.48.864a6.091 6.091 0 0 1 2.448 2.4c.608 1.04.912 2.24.912 3.6 0 1.36-.312 2.56-.936 3.6a6.377 6.377 0 0 1-2.496 2.424c-1.04.56-2.208.84-3.504.84Zm0-2.928c.608 0 1.176-.144 1.704-.432.544-.304.976-.752 1.296-1.344.32-.592.48-1.312.48-2.16 0-1.264-.336-2.232-1.008-2.904-.656-.688-1.464-1.032-2.424-1.032s-1.768.344-2.424 1.032c-.64.672-.96 1.64-.96 2.904s.312 2.24.936 2.928c.64.672 1.44 1.008 2.4 1.008Z" fill="#414141"/></svg>